REM DIRINDEX 1\2,1\3
REM DIRNAME folder01,folder02,folder03
TITLE ""
FILE "CD1Track25.mp3" MP3
  TRACK 01 AUDIO
    TITLE "0:"
    INDEX 01 00:00:00
  TRACK 02 AUDIO
    TITLE "3:cjc102_1026"
    INDEX 01 00:00:11
  TRACK 03 AUDIO
    TITLE "0:"
    INDEX 01 00:01:09
  TRACK 04 AUDIO
    TITLE "2:cjc102_1027"
    INDEX 01 00:01:17
  TRACK 05 AUDIO
    TITLE "0:"
    INDEX 01 00:02:43
  TRACK 06 AUDIO
    TITLE "3:cjc102_1028"
    INDEX 01 00:03:31
  TRACK 07 AUDIO
    TITLE "0:"
    INDEX 01 00:04:17
  TRACK 08 AUDIO
    TITLE "2:cjc102_1029"
    INDEX 01 00:04:33
  TRACK 09 AUDIO
    TITLE "0:"
    INDEX 01 00:05:46
  TRACK 10 AUDIO
    TITLE "3:cjc102_1030"
    INDEX 01 00:06:73
  TRACK 11 AUDIO
    TITLE "0:"
    INDEX 01 00:07:52
  TRACK 12 AUDIO
    TITLE "2:cjc102_1031"
    INDEX 01 00:07:54
  TRACK 13 AUDIO
    TITLE "0:"
    INDEX 01 00:08:52
  TRACK 14 AUDIO
    TITLE "3:cjc102_1032"
    INDEX 01 00:09:20
  TRACK 15 AUDIO
    TITLE "0:"
    INDEX 01 00:10:08
  TRACK 16 AUDIO
    TITLE "2:cjc102_1033"
    INDEX 01 00:10:12
  TRACK 17 AUDIO
    TITLE "0:"
    INDEX 01 00:11:17
  TRACK 18 AUDIO
    TITLE "3:cjc102_1034"
    INDEX 01 00:11:66
  TRACK 19 AUDIO
    TITLE "0:"
    INDEX 01 00:12:46
  TRACK 20 AUDIO
    TITLE "2:cjc102_1035"
    INDEX 01 00:12:60
  TRACK 21 AUDIO
    TITLE "0:"
    INDEX 01 00:13:63
  TRACK 22 AUDIO
    TITLE "3:cjc102_1036"
    INDEX 01 00:14:47
  TRACK 23 AUDIO
    TITLE "0:"
    INDEX 01 00:15:25
  TRACK 24 AUDIO
    TITLE "2:cjc102_1037"
    INDEX 01 00:15:27
  TRACK 25 AUDIO
    TITLE "0:"
    INDEX 01 00:16:20
  TRACK 26 AUDIO
    TITLE "3:cjc102_1038"
    INDEX 01 00:17:12
  TRACK 27 AUDIO
    TITLE "0:"
    INDEX 01 00:17:72
  TRACK 28 AUDIO
    TITLE "2:cjc102_1039"
    INDEX 01 00:17:74
  TRACK 29 AUDIO
    TITLE "0:"
    INDEX 01 00:19:05
  TRACK 30 AUDIO
    TITLE "3:cjc102_1040"
    INDEX 01 00:19:50
  TRACK 31 AUDIO
    TITLE "0:"
    INDEX 01 00:20:30
  TRACK 32 AUDIO
    TITLE "2:cjc102_1041"
    INDEX 01 00:20:32
  TRACK 33 AUDIO
    TITLE "0:"
    INDEX 01 00:21:43
  TRACK 34 AUDIO
    TITLE "3:cjc102_1042"
    INDEX 01 00:22:17
  TRACK 35 AUDIO
    TITLE "0:"
    INDEX 01 00:22:58
  TRACK 36 AUDIO
    TITLE "2:cjc102_1043"
    INDEX 01 00:22:60
  TRACK 37 AUDIO
    TITLE "0:"
    INDEX 01 00:23:59
  TRACK 38 AUDIO
    TITLE "3:cjc102_1044"
    INDEX 01 00:24:16
  TRACK 39 AUDIO
    TITLE "0:"
    INDEX 01 00:25:03
  TRACK 40 AUDIO
    TITLE "2:cjc102_1045"
    INDEX 01 00:25:09
  TRACK 41 AUDIO
    TITLE "0:"
    INDEX 01 00:25:72
  TRACK 42 AUDIO
    TITLE "3:cjc102_1046"
    INDEX 01 00:27:02
  TRACK 43 AUDIO
    TITLE "0:"
    INDEX 01 00:28:15
  TRACK 44 AUDIO
    TITLE "2:cjc102_1047"
    INDEX 01 00:28:19
  TRACK 45 AUDIO
    TITLE "0:"
    INDEX 01 00:29:15
  TRACK 46 AUDIO
    TITLE "3:cjc102_1048"
    INDEX 01 00:29:48
  TRACK 47 AUDIO
    TITLE "0:"
    INDEX 01 00:30:50
  TRACK 48 AUDIO
    TITLE "2:cjc102_1049"
    INDEX 01 00:30:55
  TRACK 49 AUDIO
    TITLE "0:"
    INDEX 01 00:31:53
  TRACK 50 AUDIO
    TITLE "3:cjc102_1050"
    INDEX 01 00:32:19
  TRACK 51 AUDIO
    TITLE "0:"
    INDEX 01 00:33:34
  TRACK 52 AUDIO
    TITLE "2:cjc102_1051"
    INDEX 01 00:33:40
  TRACK 53 AUDIO
    TITLE "0:"
    INDEX 01 00:34:30
  TRACK 54 AUDIO
    TITLE "3:cjc102_1052"
    INDEX 01 00:34:69
  TRACK 55 AUDIO
    TITLE "0:"
    INDEX 01 00:36:03
  TRACK 56 AUDIO
    TITLE "2:cjc102_1053"
    INDEX 01 00:36:11
  TRACK 57 AUDIO
    TITLE "0:"
    INDEX 01 00:37:03
  TRACK 58 AUDIO
    TITLE "3:cjc102_1054"
    INDEX 01 00:37:26
  TRACK 59 AUDIO
    TITLE "0:"
    INDEX 01 00:38:33
  TRACK 60 AUDIO
    TITLE "2:cjc102_1055"
    INDEX 01 00:38:39
  TRACK 61 AUDIO
    TITLE "0:"
    INDEX 01 00:39:39
  TRACK 62 AUDIO
    TITLE "3:cjc102_1056"
    INDEX 01 00:39:70
  TRACK 63 AUDIO
    TITLE "0:"
    INDEX 01 00:40:72
  TRACK 64 AUDIO
    TITLE "2:cjc102_1057"
    INDEX 01 00:41:00
  TRACK 65 AUDIO
    TITLE "0:"
    INDEX 01 00:42:06
  TRACK 66 AUDIO
    TITLE "3:cjc102_1058"
    INDEX 01 00:42:68
  TRACK 67 AUDIO
    TITLE "0:"
    INDEX 01 00:44:14
  TRACK 68 AUDIO
    TITLE "2:cjc102_1059"
    INDEX 01 00:44:38
  TRACK 69 AUDIO
    TITLE "0:"
    INDEX 01 00:45:41
  TRACK 70 AUDIO
    TITLE "3:cjc102_1060"
    INDEX 01 00:45:73
  TRACK 71 AUDIO
    TITLE "0:"
    INDEX 01 00:47:13
  TRACK 72 AUDIO
    TITLE "2:cjc102_1061"
    INDEX 01 00:47:19
  TRACK 73 AUDIO
    TITLE "0:"
    INDEX 01 00:48:26
  TRACK 74 AUDIO
    TITLE "3:cjc102_1062"
    INDEX 01 00:48:65
  TRACK 75 AUDIO
    TITLE "0:"
    INDEX 01 00:50:05
  TRACK 76 AUDIO
    TITLE "2:cjc102_1063"
    INDEX 01 00:50:07
  TRACK 77 AUDIO
    TITLE "0:"
    INDEX 01 00:51:11
  TRACK 78 AUDIO
    TITLE "3:cjc102_1064"
    INDEX 01 00:51:60
  TRACK 79 AUDIO
    TITLE "0:"
    INDEX 01 00:52:71
  TRACK 80 AUDIO
    TITLE "2:cjc102_1065"
    INDEX 01 00:52:73
  TRACK 81 AUDIO
    TITLE "0:"
    INDEX 01 00:54:07
  TRACK 82 AUDIO
    TITLE "3:cjc102_1066"
    INDEX 01 00:54:34
  TRACK 83 AUDIO
    TITLE "0:"
    INDEX 01 00:55:63
  TRACK 84 AUDIO
    TITLE "2:cjc102_1067"
    INDEX 01 00:55:65
  TRACK 85 AUDIO
    TITLE "0:"
    INDEX 01 00:56:72
  TRACK 86 AUDIO
    TITLE "3:cjc102_1068"
    INDEX 01 00:57:03
  TRACK 87 AUDIO
    TITLE "0:"
    INDEX 01 00:58:18
  TRACK 88 AUDIO
    TITLE "2:cjc102_1069"
    INDEX 01 00:58:38
  TRACK 89 AUDIO
    TITLE "0:"
    INDEX 01 00:59:49
  TRACK 90 AUDIO
    TITLE "3:cjc102_1070"
    INDEX 01 00:59:69
  TRACK 91 AUDIO
    TITLE "0:"
    INDEX 01 01:01:21
  TRACK 92 AUDIO
    TITLE "2:cjc102_1071"
    INDEX 01 01:01:40
  TRACK 93 AUDIO
    TITLE "0:"
    INDEX 01 01:02:50
  TRACK 94 AUDIO
    TITLE "2:cjc102_1072"
    INDEX 01 01:03:43
  TRACK 95 AUDIO
    TITLE "0:"
    INDEX 01 01:04:52
  TRACK 96 AUDIO
    TITLE "3:cjc102_1073"
    INDEX 01 01:05:42
  TRACK 97 AUDIO
    TITLE "0:"
    INDEX 01 01:06:73
  TRACK 98 AUDIO
    TITLE "2:cjc102_1074"
    INDEX 01 01:07:14
  TRACK 99 AUDIO
    TITLE "0:"
    INDEX 01 01:08:29
  TRACK 100 AUDIO
    TITLE "2:cjc102_1075"
    INDEX 01 01:08:72
  TRACK 101 AUDIO
    TITLE "0:"
    INDEX 01 01:10:04
  TRACK 102 AUDIO
    TITLE "3:cjc102_1076"
    INDEX 01 01:10:65
  TRACK 103 AUDIO
    TITLE "0:"
    INDEX 01 01:12:11
  TRACK 104 AUDIO
    TITLE "2:cjc102_1077"
    INDEX 01 01:12:71
  TRACK 105 AUDIO
    TITLE "0:"
    INDEX 01 01:14:12
  TRACK 106 AUDIO
    TITLE "2:cjc102_1078"
    INDEX 01 01:14:14
  TRACK 107 AUDIO
    TITLE "0:"
    INDEX 01 01:15:09
  TRACK 108 AUDIO
    TITLE "3:cjc102_1079"
    INDEX 01 01:16:24
  TRACK 109 AUDIO
    TITLE "0:"
    INDEX 01 01:17:59
  TRACK 110 AUDIO
    TITLE "2:cjc102_1080"
    INDEX 01 01:18:29
  TRACK 111 AUDIO
    TITLE "0:"
    INDEX 01 01:19:46
  TRACK 112 AUDIO
    TITLE "2:cjc102_1081"
    INDEX 01 01:20:14
  TRACK 113 AUDIO
    TITLE "0:"
    INDEX 01 01:21:33
  TRACK 114 AUDIO
    TITLE "3:cjc102_1082"
    INDEX 01 01:22:15
  TRACK 115 AUDIO
    TITLE "0:"
    INDEX 01 01:23:48
  TRACK 116 AUDIO
    TITLE "2:cjc102_1083"
    INDEX 01 01:24:26
  TRACK 117 AUDIO
    TITLE "0:"
    INDEX 01 01:25:39
  TRACK 118 AUDIO
    TITLE "2:cjc102_1084"
    INDEX 01 01:25:41
  TRACK 119 AUDIO
    TITLE "0:"
    INDEX 01 01:26:36
  TRACK 120 AUDIO
    TITLE "3:cjc102_1085"
    INDEX 01 01:28:24
  TRACK 121 AUDIO
    TITLE "0:"
    INDEX 01 01:29:58
  TRACK 122 AUDIO
    TITLE "2:cjc102_1086"
    INDEX 01 01:30:26
  TRACK 123 AUDIO
    TITLE "0:"
    INDEX 01 01:31:41
  TRACK 124 AUDIO
    TITLE "2:cjc102_1087"
    INDEX 01 01:32:13
  TRACK 125 AUDIO
    TITLE "0:"
    INDEX 01 01:33:27
